<svg width="232" height="61" viewBox="0 0 232 61" fill="none" xmlns="http://www.w3.org/2000/svg">
<path d="M18.2518 9.18613H15.7038L14.3518 9.7022V43.9695L15.7038 44.4856H18.2518V44.8985H9.35989V44.4856H10.3479L11.6999 43.9695V26.7327H6.55192V43.9695L7.9039 44.4856H8.89189V44.8985H0V44.4856H2.54797L3.89995 43.9695V9.7022L2.54797 9.18613H0V8.77326H8.89189V9.18613H7.9039L6.55192 9.7022V26.2166H11.6999V9.7022L10.3479 9.18613H9.35989V8.77326H18.2518V9.18613Z" fill="#848F63"/>
<path d="M32.7637 9.18613H30.2157L28.8637 9.7022V43.9695L30.2157 44.4856H32.7637V44.8985H24.0278V44.4856H25.0158L26.3677 43.9695V14.0888L20.9598 42.6794V43.9695L22.3118 44.4856H23.2998V44.8985H14.5639V44.4856H17.1119L18.4638 43.9695V9.7022L17.1119 9.18613H14.5639V8.77326H23.2998V9.18613H22.3118L20.9598 9.7022V39.5829L26.3677 10.9924V9.7022L25.0158 9.18613H24.0278V8.77326H32.7637V9.18613Z" fill="#848F63"/>
<path d="M45.5076 39.6861C45.5769 40.0302 45.6116 40.5462 45.6116 41.2343C45.6116 42.4729 45.3516 43.4535 44.8316 44.176C44.3116 44.8985 43.5836 45.2597 42.6476 45.2597C41.5036 45.2597 40.6543 44.8641 40.0996 44.0728C39.545 43.247 39.2676 42.1977 39.2676 40.9247V26.6294C39.2676 24.806 38.609 23.8942 37.2917 23.8942H35.5237V43.9695L36.8757 44.4856H37.8637V44.8985H29.1278V44.4856H31.6757L33.0277 43.9695V9.7022L31.6757 9.18613H29.1278V8.77326H37.8637V9.18613H36.8757L35.5237 9.7022V23.4298H37.4477C38.1756 23.4298 38.765 23.2406 39.2156 22.8621C39.701 22.4836 39.9436 21.7095 39.9436 20.5398C39.9436 20.3677 39.909 19.9721 39.8396 19.3528L39.1116 13.1599C38.973 12.0589 38.9036 11.0784 38.9036 10.2183C38.9036 9.56458 38.9556 9.10011 39.0596 8.82487C39.1983 8.54963 39.4236 8.41201 39.7356 8.41201C40.0476 8.41201 40.3423 8.61844 40.6196 9.0313C40.9316 9.44416 41.3129 10.2699 41.7636 11.5085L42.1276 8.41201H42.4916L43.4276 23.4814H43.0116L41.2436 13.934C41.0356 12.5922 40.7756 11.4396 40.4636 10.4763C40.1863 9.51297 39.9436 9.0313 39.7356 9.0313C39.5276 9.0313 39.4236 9.35815 39.4236 10.0118C39.4236 10.5279 39.5276 11.6977 39.7356 13.5212L40.4116 19.456C40.4463 19.6968 40.4636 20.0409 40.4636 20.4882C40.4636 22.2084 39.857 23.2578 38.6436 23.6362C39.5796 23.7394 40.325 24.2039 40.8796 25.0296C41.4689 25.8553 41.7636 26.9907 41.7636 28.4357V42.2665C41.7636 43.8491 42.2143 44.6404 43.1156 44.6404C43.5663 44.6404 43.9129 44.434 44.1556 44.0211C44.4329 43.6083 44.5716 42.731 44.5716 41.3892C44.5716 40.7011 44.5542 40.1334 44.5196 39.6861L43.9996 31.4805H44.4156L45.5076 39.6861Z" fill="#848F63"/>
<path d="M50.9354 45.2597C49.0288 45.2597 47.7114 43.6599 46.9835 40.4602L46.4115 37.725C45.6141 34.5254 45.2155 30.8957 45.2155 26.8359C45.2155 22.7761 45.6141 19.1464 46.4115 15.9467L46.9835 13.2115C47.7114 10.0118 49.0288 8.41201 50.9354 8.41201C52.8074 8.41201 54.142 10.0118 54.9394 13.2115L55.5113 15.9467C56.274 19.2152 56.6553 22.8449 56.6553 26.8359C56.6553 30.8268 56.274 34.4566 55.5113 37.725L54.9394 40.4602C54.142 43.6599 52.8074 45.2597 50.9354 45.2597ZM50.9354 44.7437C51.8021 44.7437 52.4781 44.3308 52.9634 43.5051C53.4487 42.6794 53.6914 41.2515 53.6914 39.2217C53.6914 38.0519 53.6567 36.194 53.5874 33.6481C53.518 30.8268 53.4834 28.5561 53.4834 26.8359C53.4834 25.1156 53.518 22.8449 53.5874 20.0237C53.6567 17.4777 53.6914 15.6199 53.6914 14.4501C53.6914 12.4202 53.4487 10.9924 52.9634 10.1667C52.4781 9.34095 51.8021 8.92809 50.9354 8.92809C49.0981 8.92809 48.1794 10.7688 48.1794 14.4501C48.1794 15.6199 48.2141 17.4777 48.2834 20.0237C48.3528 22.8449 48.3874 25.1156 48.3874 26.8359C48.3874 28.5561 48.3528 30.8268 48.2834 33.6481C48.2141 36.194 48.1794 38.0519 48.1794 39.2217C48.1794 42.903 49.0981 44.7437 50.9354 44.7437Z" fill="#848F63"/>
<path d="M58.7507 45.2597C58.0228 45.2597 57.4334 44.3652 56.9828 42.5761C56.4281 40.9247 56.1508 39.6517 56.1508 38.7572C56.1508 38.1723 56.2721 37.3466 56.5148 36.28L58.3867 28.1261H58.8027L57.7628 36.28C57.5548 37.9659 57.4508 39.3937 57.4508 40.5635C57.4508 41.9397 57.5721 42.9718 57.8148 43.6599C58.0574 44.3136 58.3694 44.6404 58.7507 44.6404C59.6521 44.6404 60.2934 42.3697 60.6747 37.8283C61.0907 33.2868 61.2987 28.3669 61.2987 23.0685C61.2987 18.4239 60.8827 14.1576 60.0507 10.2699L56.1508 9.18613V8.77326H72.0626V9.18613H69.5146L68.1626 9.7022V43.9695L69.5146 44.4856H72.0626V44.8985H62.1307V44.4856H64.1587L65.5107 43.9695V9.18613H61.8187V11.2504C61.888 16.6864 61.9227 20.3677 61.9227 22.2944C61.9227 28.3153 61.6974 33.6481 61.2467 38.2927C60.8307 42.9374 59.9987 45.2597 58.7507 45.2597Z" fill="#848F63"/>
<path d="M81.7133 43.9695L83.0653 44.4856H85.1973V44.8985H75.6294V44.4856H77.6574L79.0094 43.9695L77.4494 33.2352H72.6654L71.1055 43.9695L72.4575 44.4856H74.4854V44.8985H66.9455V44.4856H69.1295L70.4815 43.9695L75.9414 8.67005H76.2534L81.7133 43.9695ZM75.1094 16.824L72.7694 32.7191H77.3974L75.1094 16.824Z" fill="#848F63"/>
<path d="M98.6261 9.18613H96.0782L94.7262 9.7022V43.9695L96.0782 44.4856H98.6261V44.8985H89.8902V44.4856H90.8782L92.2302 43.9695V14.0888L86.8223 42.6794V43.9695L88.1743 44.4856H89.1622V44.8985H80.4264V44.4856H82.9743L84.3263 43.9695V9.7022L82.9743 9.18613H80.4264V8.77326H89.1622V9.18613H88.1743L86.8223 9.7022V39.5829L92.2302 10.9924V9.7022L90.8782 9.18613H89.8902V8.77326H98.6261V9.18613ZM89.5262 5.67682C88.0009 5.67682 86.8223 5.24676 85.9903 4.38663C85.193 3.4921 84.7943 2.51156 84.7943 1.44501C84.7943 1.10096 84.8983 0.842922 85.1063 0.670897L85.4703 0.258037C85.6783 0.0860123 85.869 0 86.0423 0C86.2156 0 86.3889 0.0860123 86.5623 0.258037L86.9783 0.670897C87.1516 0.842922 87.2383 1.01495 87.2383 1.18697C87.2383 1.359 87.1516 1.54822 86.9783 1.75466L86.6663 2.0643C86.3889 2.33954 86.2503 2.66639 86.2503 3.04484C86.2503 3.62972 86.5623 4.163 87.1863 4.64467C87.8103 5.09194 88.5903 5.31557 89.5262 5.31557C90.4969 5.31557 91.2942 5.09194 91.9182 4.64467C92.5422 4.163 92.8542 3.62972 92.8542 3.04484C92.8542 2.66639 92.7155 2.33954 92.4382 2.0643L92.1262 1.75466C91.9182 1.54822 91.8142 1.359 91.8142 1.18697C91.8142 1.01495 91.9182 0.842922 92.1262 0.670897L92.4902 0.258037C92.6982 0.0860123 92.8889 0 93.0622 0C93.2355 0 93.4089 0.0860123 93.5822 0.258037L93.9982 0.670897C94.2062 0.842922 94.3102 1.10096 94.3102 1.44501C94.3102 2.51156 93.8942 3.4921 93.0622 4.38663C92.2302 5.24676 91.0516 5.67682 89.5262 5.67682Z" fill="#848F63"/>
<path d="M110.486 24.6168C110.486 25.1328 110.486 25.6661 110.486 26.2166C110.521 26.7327 110.625 27.2487 110.798 27.7648C111.699 27.4208 112.687 27.0595 113.762 26.681C114.837 26.3026 115.825 25.8381 116.726 25.2876C117.662 24.7028 118.425 23.9975 119.014 23.1717C119.638 22.346 119.95 21.3311 119.95 20.1269C119.95 19.2324 119.655 18.4755 119.066 17.8562C118.511 17.2369 117.749 16.9272 116.778 16.9272C115.773 16.9272 114.889 17.1853 114.126 17.7014C113.363 18.183 112.705 18.8023 112.15 19.5592C111.595 20.2817 111.179 21.1074 110.902 22.0364C110.625 22.9309 110.486 23.791 110.486 24.6168ZM100.606 39.9442C100.606 41.2515 100.97 42.3525 101.698 43.247C102.461 44.1416 103.518 44.5888 104.87 44.5888C106.881 44.5888 108.718 44.0728 110.382 43.0406C112.081 42.0085 113.537 40.7699 114.75 39.3249C114.057 37.5014 113.294 35.7468 112.462 34.0609C111.63 32.3751 110.937 30.5688 110.382 28.6421C109.134 29.1238 107.921 29.7087 106.742 30.3968C105.563 31.0849 104.523 31.8934 103.622 32.8223C102.721 33.7513 101.993 34.8006 101.438 35.9704C100.883 37.1402 100.606 38.4647 100.606 39.9442ZM116.83 46.1371C116.83 47.9949 116.449 49.8184 115.686 51.6074C114.923 53.3965 113.866 54.9791 112.514 56.3553C111.162 57.7659 109.55 58.8841 107.678 59.7098C105.806 60.5699 103.778 61 101.594 61C100.623 61 99.6355 60.8452 98.6302 60.5355C97.6595 60.2603 96.7755 59.8302 95.9782 59.2453C95.2156 58.6949 94.5916 57.9896 94.1062 57.1294C93.5863 56.3037 93.3262 55.3576 93.3262 54.291C93.2916 53.018 93.5689 51.9515 94.1582 51.0914C94.7129 50.2657 95.3542 49.612 96.0822 49.1303C96.8102 48.6486 97.5209 48.3046 98.2142 48.0981C98.9075 47.8917 99.3582 47.7885 99.5662 47.7885C99.7742 47.7885 99.8782 47.8745 99.8782 48.0465C99.8782 48.2186 99.6702 48.3046 99.2542 48.3046C98.8382 48.339 98.1795 48.5798 97.2782 49.0271C97.0355 49.1647 96.7235 49.3539 96.3422 49.5948C95.9609 49.8356 95.5969 50.128 95.2502 50.4721C94.9036 50.8505 94.6089 51.2978 94.3662 51.8139C94.0889 52.3643 93.9502 52.9836 93.9502 53.6717C93.9502 54.6351 94.1756 55.4608 94.6262 56.1489C95.0769 56.8714 95.6316 57.4563 96.2902 57.9035C96.9489 58.3508 97.6595 58.6777 98.4222 58.8841C99.1848 59.1249 99.8782 59.2453 100.502 59.2453C102.374 59.2453 104.211 58.8497 106.014 58.0584C107.851 57.2671 109.498 56.2005 110.954 54.8587C112.41 53.5169 113.571 51.9687 114.438 50.214C115.339 48.4594 115.79 46.6359 115.79 44.7437C115.79 44.09 115.703 43.2814 115.53 42.3181C115.391 41.3548 115.201 40.5462 114.958 39.8926C114.369 40.6151 113.71 41.3032 112.982 41.9569C112.289 42.5761 111.509 43.1266 110.642 43.6083C109.81 44.09 108.909 44.4856 107.938 44.7953C106.967 45.0705 105.945 45.2081 104.87 45.2081C103.899 45.2081 102.981 45.0705 102.114 44.7953C101.247 44.4856 100.485 44.0728 99.8262 43.5567C99.2022 43.0062 98.6995 42.3697 98.3182 41.6472C97.9715 40.8903 97.7982 40.0474 97.7982 39.1184C97.7982 37.3982 98.1795 35.936 98.9422 34.7318C99.7395 33.5276 100.745 32.4955 101.958 31.6354C103.171 30.7752 104.506 30.0527 105.962 29.4679C107.418 28.883 108.839 28.3669 110.226 27.9196C109.983 27.0595 109.862 26.1306 109.862 25.1328C109.862 24.1695 110.001 23.1717 110.278 22.1396C110.555 21.073 110.971 20.1097 111.526 19.2496C112.115 18.3895 112.826 17.6842 113.658 17.1337C114.525 16.5832 115.53 16.308 116.674 16.308C117.887 16.308 118.841 16.6692 119.534 17.3917C120.227 18.0798 120.574 19.0259 120.574 20.2301C120.574 21.3999 120.245 22.432 119.586 23.3266C118.927 24.1867 118.113 24.9436 117.142 25.5973C116.171 26.251 115.131 26.8015 114.022 27.2487C112.913 27.696 111.907 28.0917 111.006 28.4357C111.11 29.0206 111.318 29.7603 111.63 30.6548C111.977 31.5149 112.358 32.4267 112.774 33.39C113.225 34.3534 113.675 35.3167 114.126 36.28C114.577 37.209 114.958 38.0175 115.27 38.7056C115.825 38.0175 116.414 37.295 117.038 36.5381C117.662 35.7812 118.251 35.0243 118.806 34.2673C119.395 33.5104 119.933 32.7879 120.418 32.0998C120.938 31.4117 121.389 30.7924 121.77 30.242C122.221 29.5883 122.775 28.8486 123.434 28.0228C124.127 27.1971 124.873 26.423 125.67 25.7005C126.502 24.978 127.351 24.3759 128.218 23.8942C129.119 23.3782 130.02 23.1201 130.922 23.1201C131.476 23.1201 131.927 23.275 132.274 23.5846C132.655 23.8598 132.846 24.2899 132.846 24.8748C132.846 25.4597 132.672 25.9241 132.326 26.2682C131.979 26.5778 131.511 26.7327 130.922 26.7327C130.575 26.7327 130.298 26.6466 130.09 26.4746C129.882 26.2682 129.708 26.0446 129.57 25.8037C129.431 25.5629 129.275 25.3565 129.102 25.1844C128.963 24.978 128.772 24.8748 128.53 24.8748C128.287 24.8748 127.958 24.9952 127.542 25.236C127.126 25.4769 126.658 25.8209 126.138 26.2682C125.618 26.681 125.081 27.1799 124.526 27.7648C123.971 28.3497 123.451 28.969 122.966 29.6227C121.753 31.3085 120.487 32.9772 119.17 34.6286C117.887 36.2456 116.674 37.7766 115.53 39.2217C116.397 41.3892 116.83 43.6943 116.83 46.1371Z" fill="#848F63"/>
<path d="M131.702 43.9695L133.054 44.4856H135.186V44.8985H125.618V44.4856H127.646L128.998 43.9695L127.438 33.2352H122.654L121.094 43.9695L122.446 44.4856H124.474V44.8985H116.934V44.4856H119.118L120.47 43.9695L125.93 8.67005H126.242L131.702 43.9695ZM125.098 16.824L122.758 32.7191H127.386L125.098 16.824Z" fill="#848F63"/>
<path d="M148.667 9.18613H146.119L144.767 9.7022V43.9695L146.119 44.4856H148.667V44.8985H139.775V44.4856H140.763L142.115 43.9695V26.7327H136.967V43.9695L138.319 44.4856H139.307V44.8985H130.415V44.4856H132.963L134.315 43.9695V9.7022L132.963 9.18613H130.415V8.77326H139.307V9.18613H138.319L136.967 9.7022V26.2166H142.115V9.7022L140.763 9.18613H139.775V8.77326H148.667V9.18613Z" fill="#848F63"/>
<path d="M158.291 43.9695L159.643 44.4856H161.774V44.8985H152.207V44.4856H154.235L155.587 43.9695L154.027 33.2352H149.243L147.683 43.9695L149.035 44.4856H151.063V44.8985H143.523V44.4856H145.707L147.059 43.9695L152.519 8.67005H152.831L158.291 43.9695ZM151.687 16.824L149.347 32.7191H153.975L151.687 16.824Z" fill="#848F63"/>
<path d="M169.08 34.577C169.288 35.6435 169.392 36.5553 169.392 37.3122C169.392 38.3787 169.08 39.6345 168.456 41.0795L168.196 41.9569C167.433 44.1588 166.324 45.2597 164.868 45.2597C163.62 45.2597 162.614 44.7092 161.852 43.6083C161.124 42.4729 160.448 40.5118 159.824 37.725C159.061 34.4566 158.68 30.8268 158.68 26.8359C158.68 22.7761 159.078 19.1464 159.876 15.9467L160.448 13.3147C161.245 10.0463 162.406 8.41201 163.932 8.41201C164.556 8.41201 165.11 8.67005 165.596 9.18613C166.116 9.6678 166.584 10.4763 167 11.6117L167.364 8.41201H167.78L168.664 23.9975H168.3L166.896 16.4112C166.584 14.4157 166.289 12.9019 166.012 11.8697C165.769 10.8032 165.474 10.0463 165.128 9.59899C164.816 9.15172 164.417 8.92809 163.932 8.92809C163.204 8.92809 162.632 9.37535 162.216 10.2699C161.834 11.1644 161.644 12.5578 161.644 14.4501C161.644 15.6199 161.678 17.4777 161.748 20.0237C161.817 22.8449 161.852 25.1156 161.852 26.8359C161.852 28.7625 161.817 31.1021 161.748 33.8545C161.678 36.0564 161.644 37.5702 161.644 38.3959C161.644 40.5634 161.921 42.1633 162.476 43.1954C163.065 44.2276 163.862 44.7437 164.868 44.7437C165.977 44.7437 166.792 44.1072 167.312 42.8342C167.866 41.5268 168.144 39.5313 168.144 36.8477C168.144 35.8844 168.126 35.1275 168.092 34.577L167.832 29.1582H168.196L169.08 34.577Z" fill="#848F63"/>
<path d="M180.252 44.8985H169.8V44.4856H172.348L173.7 43.9695V9.18613H171.62L169.644 25.0296H169.28L169.904 8.77326H180.148L180.772 25.0296H180.408L178.432 9.18613H176.352V43.9695L177.704 44.4856H180.252V44.8985Z" fill="#848F63"/>
<path d="M191.217 43.9695L192.569 44.4856H194.701V44.8985H185.133V44.4856H187.161L188.513 43.9695L186.953 33.2352H182.169L180.609 43.9695L181.961 44.4856H183.989V44.8985H176.449V44.4856H178.633L179.985 43.9695L185.445 8.67005H185.757L191.217 43.9695ZM184.613 16.824L182.273 32.7191H186.901L184.613 16.824Z" fill="#848F63"/>
<path d="M202.006 34.577C202.214 35.6435 202.318 36.5553 202.318 37.3122C202.318 38.3787 202.006 39.6345 201.382 41.0795L201.122 41.9569C200.359 44.1588 199.25 45.2597 197.794 45.2597C196.546 45.2597 195.54 44.7092 194.778 43.6083C194.05 42.4729 193.374 40.5118 192.75 37.725C191.987 34.4566 191.606 30.8268 191.606 26.8359C191.606 22.7761 192.005 19.1464 192.802 15.9467L193.374 13.3147C194.171 10.0463 195.332 8.41201 196.858 8.41201C197.482 8.41201 198.036 8.67005 198.522 9.18613C199.042 9.6678 199.51 10.4763 199.926 11.6117L200.29 8.41201H200.706L201.59 23.9975H201.226L199.822 16.4112C199.51 14.4157 199.215 12.9019 198.938 11.8697C198.695 10.8032 198.4 10.0463 198.054 9.59899C197.742 9.15172 197.343 8.92809 196.858 8.92809C196.13 8.92809 195.558 9.37535 195.142 10.2699C194.76 11.1644 194.57 12.5578 194.57 14.4501C194.57 15.6199 194.604 17.4777 194.674 20.0237C194.743 22.8449 194.778 25.1156 194.778 26.8359C194.778 28.7625 194.743 31.1021 194.674 33.8545C194.604 36.0564 194.57 37.5702 194.57 38.3959C194.57 40.5634 194.847 42.1633 195.402 43.1954C195.991 44.2276 196.788 44.7437 197.794 44.7437C198.903 44.7437 199.718 44.1072 200.238 42.8342C200.792 41.5268 201.07 39.5313 201.07 36.8477C201.07 35.8844 201.052 35.1275 201.018 34.577L200.758 29.1582H201.122L202.006 34.577Z" fill="#848F63"/>
<path d="M218.58 9.18613H216.032L214.68 9.7022V43.9695L216.032 44.4856H218.58V44.8985H209.844V44.4856H210.832L212.184 43.9695V14.0888L206.776 42.6794V43.9695L208.128 44.4856H209.116V44.8985H200.38V44.4856H202.928L204.28 43.9695V9.7022L202.928 9.18613H200.38V8.77326H209.116V9.18613H208.128L206.776 9.7022V39.5829L212.184 10.9924V9.7022L210.832 9.18613H209.844V8.77326H218.58V9.18613Z" fill="#848F63"/>
<path d="M229.452 9.18613L228.1 9.7022V43.9695L229.452 44.4856H232V44.8985H222.38V44.4856H224.252L225.604 43.9695V27.8164H224.356C222.969 27.8164 222.276 28.7281 222.276 30.5516V40.9247C222.276 42.1633 221.999 43.1954 221.444 44.0211C220.924 44.8469 220.161 45.2597 219.156 45.2597C218.255 45.2597 217.544 44.9157 217.024 44.2276C216.504 43.5051 216.244 42.5417 216.244 41.3376C216.244 40.7871 216.296 40.2366 216.4 39.6861L217.388 33.0288H217.804L217.336 39.6861C217.302 40.099 217.284 40.6495 217.284 41.3376C217.284 42.6794 217.406 43.5739 217.648 44.0211C217.926 44.434 218.255 44.6404 218.636 44.6404C219.468 44.6404 219.884 43.8491 219.884 42.2665V32.3579C219.884 30.9473 220.179 29.8463 220.768 29.055C221.357 28.2637 222.207 27.7992 223.316 27.6616C222.831 27.524 222.311 27.3003 221.756 26.9907C221.236 26.681 220.785 26.3198 220.404 25.9069C219.641 25.0812 219.07 24.0147 218.688 22.7073C218.342 21.3655 218.168 19.8861 218.168 18.269C218.168 16.652 218.342 15.1726 218.688 13.8308C219.07 12.489 219.641 11.4052 220.404 10.5795C220.889 10.0635 221.461 9.63339 222.12 9.28934C222.779 8.94529 223.437 8.77326 224.096 8.77326H232V9.18613H229.452ZM225.604 27.3519V9.7022L224.252 9.18613H224.096C223.368 9.18613 222.692 9.6678 222.068 10.6311C221.479 11.5945 221.184 13.2287 221.184 15.5338V20.9526C221.184 23.3266 221.496 24.9952 222.12 25.9585C222.779 26.8875 223.559 27.3519 224.46 27.3519H225.604Z" fill="#848F63"/>
</svg>
