<svg width="498" height="166" viewBox="0 0 498 166" fill="none" xmlns="http://www.w3.org/2000/svg">
<path d="M121.038 23.8736V81.0695H127.856V82.5164H103.083V81.0695H109.901V51.5399H89.798V81.0695H96.5282V82.5164H71.8435V81.0695H78.5737V23.8736H71.8435V21.9883H96.5282V23.8736H89.798V49.7422H109.901V23.8736H103.083V21.9883H127.856V23.8736H121.038Z" fill="white"/>
<path d="M183.307 82.5164H158.535V80.8941H165.353V28.1924L164.914 31.3273L145.25 79.2938V80.8941H151.98V82.5164H127.295V80.8941H134.025V23.7859H127.295V21.9006H151.98V23.7859H145.25V76.4L146.061 72.9143L165.353 25.2328V23.7859H158.535V21.9006H183.307V23.7859H176.489V80.8941H183.307V82.5164Z" fill="white"/>
<path d="M202.762 49.2818H200.701V81.0695H207.432V82.5164H182.747V81.0695H189.477V23.8736H182.747V21.9883H207.432V23.8736H200.701V47.5938H202.126C204.669 47.5938 206.752 47.265 208.374 46.6073C209.997 45.9496 211.21 45.0727 212.013 43.9766C213.606 41.8136 214.63 38.569 215.083 34.243C215.536 29.9316 216.332 26.6651 217.472 24.4436C218.627 22.2075 221.265 20.8191 225.386 20.2783C228.412 20.2783 230.56 21.0091 231.831 22.4706C233.103 23.9467 233.739 25.6713 233.739 27.6443C233.739 29.4273 233.154 30.9254 231.985 32.1384C230.83 33.3369 229.442 33.9361 227.82 33.9361C226.153 33.9361 224.743 33.3369 223.589 32.1384C222.449 30.94 221.879 29.442 221.879 27.6443C221.966 26.7528 222.171 26.0147 222.492 25.4301C222.653 25.1378 222.777 24.904 222.865 24.7286C222.967 24.5386 223.033 24.4071 223.062 24.334C222.945 24.1879 222.756 24.0052 222.492 23.7859C222.229 23.5521 221.937 23.4352 221.616 23.4352C220.797 23.4352 220.081 24.0052 219.467 25.1451C218.561 26.0074 217.962 27.5201 217.669 29.6831C217.523 30.7792 217.355 31.9484 217.165 33.1907C216.99 34.4184 216.8 35.763 216.595 37.2245C216.171 40.1036 215.273 42.5151 213.899 44.4589C212.54 46.3881 210.355 47.7327 207.344 48.4926C207.49 48.4926 207.695 48.5365 207.958 48.6242C208.221 48.7119 208.404 48.7557 208.506 48.7557C208.608 48.7557 208.732 48.7557 208.879 48.7557C209.039 48.7411 209.193 48.7265 209.339 48.7119C209.485 48.6972 209.624 48.6899 209.755 48.6899C209.887 48.6753 209.982 48.668 210.04 48.668H210.764C212.357 48.668 213.804 48.7776 215.105 48.9969C216.405 49.2161 217.567 49.428 218.59 49.6326C219.613 49.8372 220.541 50.1661 221.374 50.6191C222.207 51.0722 222.975 51.6495 223.676 52.351C224.422 53.0964 225.05 53.9879 225.562 55.0255C226.073 56.0632 226.475 57.2909 226.767 58.7085C227.06 60.1262 227.308 61.7996 227.513 63.7288C227.717 65.658 227.878 67.9379 227.995 70.5686C228.287 76.8823 230.026 80.3826 233.213 81.0695C233.505 81.0695 233.761 81.106 233.98 81.1791C234.214 81.2376 234.404 81.2668 234.55 81.2668C234.623 81.2668 234.776 81.2376 235.01 81.1791C235.259 81.106 235.463 81.0695 235.624 81.0695L236.523 82.5164C236.026 82.5895 235.419 82.6114 234.703 82.5822C234.002 82.5529 233.169 82.5383 232.204 82.5383C231.196 82.5383 230.231 82.5529 229.31 82.5822C228.39 82.6114 227.505 82.5895 226.658 82.5164C225.605 82.3995 224.619 82.1583 223.698 81.793C222.792 81.413 221.922 80.8503 221.089 80.1049C219.409 78.5996 218.086 76.6704 217.121 74.3174C216.61 73.0751 216.23 71.789 215.981 70.459C215.748 69.1144 215.594 67.6895 215.521 66.1841C215.419 64.2111 215.309 62.5523 215.192 61.2077C215.09 59.8631 214.98 58.7451 214.863 57.8536C214.746 56.9767 214.564 56.1582 214.315 55.3982C214.067 54.6236 213.753 53.9002 213.373 53.2279C212.993 52.5702 212.503 52.0002 211.904 51.5179C211.319 51.021 210.596 50.6118 209.734 50.2903C208.886 49.9541 207.885 49.7057 206.73 49.5449C205.576 49.3695 204.253 49.2818 202.762 49.2818Z" fill="white"/>
<path d="M257.907 82.2533C260.377 82.1656 262.591 81.5153 264.549 80.3022C265.529 79.6884 266.391 78.9503 267.136 78.0881C267.882 77.2258 268.452 76.2173 268.846 75.0627C269.782 72.359 270.447 69.151 270.841 65.4388C271.25 61.7265 271.455 57.4809 271.455 52.7018C271.455 50.3487 271.411 47.8715 271.324 45.27C271.251 42.6539 271.053 39.8917 270.732 36.9833C270.439 34.5134 269.95 32.3869 269.263 30.6038C268.576 28.8208 267.772 27.3082 266.851 26.0659C265.916 24.8236 264.718 23.8882 263.256 23.2598C261.795 22.6167 259.982 22.3171 257.819 22.361C256.402 22.3902 255.13 22.5802 254.005 22.931C252.894 23.2671 251.915 23.7421 251.067 24.3559C250.219 24.9698 249.474 25.6713 248.831 26.4605C248.188 27.2497 247.647 28.1704 247.209 29.2227C246.785 30.2458 246.39 31.4004 246.025 32.6865C245.66 33.958 245.397 35.3903 245.236 36.9833C244.885 40.4763 244.658 43.5235 244.556 46.125C244.468 48.7119 244.425 50.9041 244.425 52.7018C244.425 54.7479 244.468 56.7355 244.556 58.6647C244.644 60.5793 244.79 62.5596 244.995 64.6057C245.199 66.6664 245.448 68.5517 245.74 70.2617C246.032 71.957 246.434 73.5574 246.946 75.0627C247.706 77.3134 248.985 79.0234 250.782 80.1926C252.594 81.3472 254.969 82.0341 257.907 82.2533ZM257.907 82.8891C256.942 82.8891 256 82.8672 255.079 82.8233C254.173 82.7795 253.281 82.6845 252.404 82.5383C251.528 82.4068 250.665 82.2241 249.818 81.9903C248.97 81.7418 248.13 81.4203 247.296 81.0257C245.587 80.2072 244.045 79.1988 242.671 78.0004C241.312 76.8019 240.011 75.4062 238.769 73.8132C236.386 70.7732 234.545 67.3606 233.244 63.5753C232.586 61.6315 232.082 59.717 231.731 57.8316C231.381 55.9317 231.242 53.9806 231.315 51.9783C231.476 47.36 232.236 43.1947 233.595 39.4825C234.969 35.7703 236.883 32.4965 239.339 29.6612C240.669 28.112 242.013 26.8113 243.372 25.759C244.746 24.7067 246.186 23.8517 247.691 23.194C251.213 21.6741 254.619 20.9141 257.907 20.9141C260.392 20.9141 262.715 21.2502 264.878 21.9225C267.056 22.5802 269.161 23.574 271.192 24.904C273.224 26.234 275.014 27.8124 276.563 29.6393C278.127 31.4515 279.508 33.578 280.706 36.0187C281.89 38.4448 282.826 40.9659 283.513 43.582C284.199 46.1835 284.579 48.9822 284.652 51.9783C284.711 53.9806 284.557 55.9244 284.192 57.8097C283.827 59.695 283.315 61.6096 282.658 63.5534C281.985 65.5264 281.189 67.3387 280.268 68.9902C279.362 70.6271 278.288 72.2128 277.045 73.7474C275.759 75.3404 274.437 76.7362 273.077 77.9346C271.718 79.1184 270.198 80.1195 268.517 80.938C266.866 81.7272 265.163 82.2533 263.41 82.5164C261.67 82.7649 259.836 82.8891 257.907 82.8891Z" fill="white"/>
<path d="M304.739 54.1486L313.705 23.7859H305.901V21.9006H334.641V23.7859H327.801V80.8941H334.729V82.5164H309.847V80.8941H316.665V23.7859H315.678L311.6 37.9041C310.797 40.6809 310.022 43.3262 309.277 45.84C308.531 48.3392 307.786 50.8237 307.041 53.2937C306.295 55.7636 305.594 58.0435 304.936 60.1335C304.278 62.2088 303.643 64.2038 303.029 66.1183C302.415 68.0621 301.838 69.7502 301.297 71.1824C300.771 72.6147 300.296 73.8789 299.872 74.9751C299.419 76.1589 298.929 77.2185 298.403 78.1538C297.877 79.0746 297.241 79.9076 296.496 80.653C295.794 81.3545 295.1 81.8441 294.413 82.1218C293.726 82.3849 293.032 82.5164 292.331 82.5164H291.081C290.087 82.5164 289.093 82.4068 288.1 82.1876C287.12 81.9683 286.236 81.603 285.447 81.0914C284.672 80.5653 284.044 79.8857 283.562 79.0526C283.079 78.2196 282.853 77.1892 282.882 75.9616C282.882 75.8593 282.904 75.6546 282.948 75.3477C282.977 75.0408 282.992 74.7631 282.992 74.5147C282.992 73.5501 283.057 72.6805 283.189 71.9059C283.306 71.1167 283.576 70.4152 284 69.8013C284.57 68.9975 285.22 68.4641 285.951 68.201C286.682 67.9233 287.464 67.7845 288.297 67.7845C290.08 67.7845 291.571 68.4494 292.769 69.7794C293.982 71.124 294.589 72.7024 294.589 74.5147C294.589 76.4 293.872 78.0807 292.44 79.5569C291.709 79.9807 291.344 80.368 291.344 80.7188C291.344 81.0549 291.673 81.2668 292.331 81.3545C293.5 81.1207 294.45 80.4995 295.181 79.4911C295.546 78.9796 295.977 78.2927 296.474 77.4304C296.971 76.5681 297.475 75.4793 297.987 74.1639C298.995 71.5624 300.069 68.6102 301.209 65.3072C302.349 61.9896 303.526 58.2701 304.739 54.1486Z" fill="white"/>
<path d="M359.664 60.7912L352.671 36.8079L344.845 60.7912H359.664ZM339.276 71.4674L355.981 20.651H358.941L377.356 81.0695H382.924V82.5164H358.502V81.1791H365.605L360.388 62.6765H344.231L341.359 71.8401C341.096 72.6732 340.891 73.4551 340.745 74.1858C340.614 74.902 340.548 75.6108 340.548 76.3123C340.548 76.4 340.548 76.5096 340.548 76.6412C340.562 76.7581 340.577 76.8823 340.592 77.0138C340.606 77.1454 340.614 77.2769 340.614 77.4084C340.628 77.5254 340.636 77.6131 340.636 77.6715C340.767 78.753 341.235 79.608 342.039 80.2365C342.842 80.8649 343.807 81.1791 344.932 81.1791H346.818V82.5164H329.565V81.2668C329.623 81.2668 329.711 81.2741 329.828 81.2887C329.945 81.2887 330.062 81.296 330.179 81.3107L330.485 81.3545C330.602 81.3691 330.697 81.3618 330.77 81.3326C330.844 81.2887 330.931 81.2668 331.034 81.2668C332.948 80.7991 334.424 80.0172 335.462 78.9211C336.003 78.3657 336.463 77.7811 336.843 77.1673C337.238 76.5535 337.559 75.9177 337.808 75.26C338.071 74.6024 338.326 73.9593 338.575 73.3309C338.838 72.7024 339.072 72.0813 339.276 71.4674Z" fill="white"/>
<path d="M434.802 82.5164H410.03V80.8941H416.848V28.1924L416.409 31.3273L396.745 79.2938V80.8941H403.475V82.5164H378.79V80.8941H385.521V23.7859H378.79V21.9006H403.475V23.7859H396.745V76.4L397.556 72.9143L416.848 25.2328V23.7859H410.03V21.9006H434.802V23.7859H427.985V80.8941H434.802V82.5164ZM397.359 11.3997C398.148 12.1889 398.923 12.8247 399.683 13.307C400.457 13.7893 401.224 14.1473 401.984 14.3812C402.788 14.6296 403.643 14.8123 404.549 14.9292C405.456 15.0315 406.413 15.0827 407.421 15.0827C411.601 15.0827 414.868 13.855 417.221 11.3997C417.104 11.3997 416.95 11.4143 416.76 11.4436C416.57 11.4728 416.453 11.4874 416.409 11.4874C415.752 11.4874 415.123 11.3266 414.524 11.0051C413.925 10.669 413.296 10.1721 412.639 9.51438C412.083 8.95901 411.66 8.3671 411.367 7.73865C411.075 7.09559 410.929 6.37215 410.929 5.56832C410.929 4.82296 411.06 4.12144 411.323 3.46376C411.586 2.80608 411.996 2.19225 412.551 1.62227C413.106 1.0669 413.735 0.657676 414.436 0.394606C415.153 0.131535 415.927 0 416.76 0C418.28 0 419.625 0.474988 420.794 1.42496C422.065 2.69647 422.701 4.16528 422.701 5.83139C422.701 6.88367 422.453 7.91403 421.956 8.92247C421.474 9.93091 420.728 10.9393 419.72 11.9478C416.782 14.8854 412.683 16.4054 407.421 16.5077C407.363 16.5077 407.253 16.5442 407.092 16.6173C406.932 16.6757 406.837 16.705 406.807 16.705C404.337 16.705 402.123 16.325 400.165 15.565C398.206 14.7904 396.409 13.5847 394.772 11.9478C392.609 9.79937 391.527 7.73135 391.527 5.7437C391.527 4.06298 392.214 2.6234 393.588 1.42496C394.67 0.474988 395.927 0 397.359 0C398.323 0 399.156 0.138843 399.858 0.416528C400.559 0.694213 401.166 1.09613 401.678 1.62227C402.204 2.17764 402.606 2.79878 402.883 3.48568C403.161 4.17259 403.3 4.95449 403.3 5.83139C403.3 7.43904 402.788 8.66671 401.765 9.51438C400.815 10.8297 399.588 11.4874 398.082 11.4874C397.995 11.4874 397.878 11.4728 397.731 11.4436C397.585 11.4143 397.461 11.3997 397.359 11.3997Z" fill="white"/>
<path d="M53.338 165.92C50.8837 165.92 48.1599 165.352 45.1667 164.214C41.7545 162.837 38.8512 160.982 36.4566 158.647C34.0621 156.372 31.7275 154.067 29.4527 151.733C28.1357 152.032 26.9085 152.272 25.7711 152.451C24.6935 152.631 23.7357 152.78 22.8976 152.9C21.2813 153.08 19.7548 153.169 18.3181 153.169C12.8706 153.169 8.4407 152.182 5.0285 150.206C1.67617 148.171 0 145.597 0 142.484C0 140.03 1.1374 137.396 3.4122 134.582C5.74686 131.709 9.54817 128.805 14.8161 125.872L20.3834 122.998C20.982 120.424 21.9099 117.581 23.167 114.468C24.4242 111.295 26.3996 108.122 29.0935 104.95C31.7873 101.717 35.5587 98.7838 40.4076 96.1499C42.862 94.773 45.1667 93.7853 47.3218 93.1866C49.4769 92.588 51.4524 92.2887 53.2482 92.2887C56.1217 92.2887 58.3665 92.9771 59.9828 94.354C61.659 95.671 62.4971 97.3471 62.4971 99.3825C62.4971 100.999 61.9284 102.765 60.791 104.68C59.6536 106.536 57.7978 108.392 55.2237 110.248C54.1462 111.026 52.5 112.014 50.285 113.211C48.0701 114.408 45.6456 115.635 43.0117 116.892C40.3777 118.15 37.8335 119.347 35.3791 120.484C32.9846 121.622 30.9792 122.549 29.3629 123.268C27.8064 123.986 27.0282 124.345 27.0282 124.345C26.9683 124.824 26.9085 125.333 26.8486 125.872C26.8486 126.411 26.8486 126.92 26.8486 127.398C26.8486 129.254 27.0282 131.08 27.3874 132.876C30.3805 131.379 33.3737 130.182 36.3668 129.284C39.36 128.386 42.2634 127.728 45.0769 127.309C46.3939 127.069 47.7109 126.89 49.0279 126.77C50.3449 126.65 51.6319 126.59 52.8891 126.59C55.5829 126.59 57.8577 127.009 59.7135 127.847C61.5692 128.626 62.4971 130.122 62.4971 132.337C62.4971 134.313 61.6291 136.198 59.8931 137.994C58.2169 139.79 55.972 141.466 53.1585 143.023C50.4047 144.579 47.4116 145.986 44.179 147.243C40.9464 148.5 37.7736 149.548 34.6607 150.386C36.4566 152.9 38.492 155.085 40.7668 156.941C43.0416 158.856 45.4062 160.323 47.8606 161.341C49.5367 161.999 51.0333 162.478 52.3503 162.778C53.7272 163.077 54.8945 163.226 55.8523 163.226C57.5285 163.226 58.7557 162.897 59.5339 162.239C60.3121 161.58 60.7012 160.802 60.7012 159.904C60.7012 158.467 59.8332 157.001 58.0972 155.504C56.3611 154.067 53.9067 153.349 50.734 153.349C50.315 153.349 49.8959 153.379 49.4769 153.439C49.0578 153.439 48.6089 153.469 48.13 153.529H47.8606C47.5612 153.529 47.4116 153.469 47.4116 153.349C47.4116 153.169 47.5612 152.96 47.8606 152.721C48.2197 152.481 48.6089 152.331 49.0279 152.272C49.866 152.152 50.6741 152.062 51.4524 152.002C52.2306 151.942 52.9789 151.912 53.6972 151.912C57.2291 151.912 59.8033 152.571 61.4196 153.888C63.0957 155.145 63.9338 156.612 63.9338 158.288C63.9338 160.144 63.0059 161.88 61.1502 163.496C59.2944 165.112 56.6904 165.92 53.338 165.92ZM27.567 120.125C28.6445 119.706 30.2309 119.077 32.3261 118.239C34.4812 117.401 36.8457 116.414 39.4199 115.276C42.0538 114.139 44.6878 112.882 47.3218 111.505C49.9558 110.128 52.2904 108.691 54.3258 107.195C56.84 105.399 58.6659 103.723 59.8033 102.166C61.0005 100.55 61.5991 99.1729 61.5991 98.0355C61.5991 95.9403 60.0726 94.8927 57.0196 94.8927C55.523 94.8927 53.7271 95.222 51.6319 95.8805C49.5966 96.4791 47.2619 97.5267 44.628 99.0233C39.4199 101.837 35.4689 105.129 32.7751 108.901C30.0812 112.672 28.3452 116.414 27.567 120.125ZM18.7671 151.463C20.2637 151.463 21.85 151.374 23.5262 151.194C24.3044 151.074 25.0826 150.984 25.8609 150.925C26.6391 150.805 27.4173 150.655 28.1955 150.476C26.699 148.74 25.352 146.944 24.1548 145.088C23.0174 143.232 22.1194 141.287 21.4609 139.251C20.5031 139.73 19.6351 140.179 18.8569 140.598C18.0787 141.017 17.4202 141.466 16.8814 141.945C16.5821 142.185 16.3726 142.364 16.2528 142.484C16.1331 142.604 16.0732 142.604 16.0732 142.484C16.0732 141.706 16.4624 140.868 17.2406 139.97C18.0188 139.012 19.0963 138.024 20.4732 137.006L20.6528 136.917C20.2936 135.48 20.0242 134.043 19.8446 132.606C19.7249 131.17 19.695 129.733 19.7548 128.296L16.7018 130.002C13.4093 132.038 10.7754 134.313 8.79988 136.827C6.8244 139.341 5.83665 141.736 5.83665 144.01C5.83665 146.106 6.85433 147.872 8.88967 149.308C10.925 150.745 14.2175 151.463 18.7671 151.463ZM33.7628 149.129C36.3369 148.53 38.8811 147.602 41.3953 146.345C43.9096 145.088 46.1844 143.681 48.2197 142.125C50.2551 140.568 51.8714 139.042 53.0687 137.545C54.3258 135.989 54.9543 134.672 54.9543 133.594C54.9543 132.816 54.5652 132.187 53.787 131.709C53.0687 131.23 51.9013 130.99 50.285 130.99C49.8061 130.99 49.2374 131.02 48.5789 131.08C47.9803 131.14 47.3218 131.23 46.6034 131.349C44.1491 131.768 41.2457 132.427 37.8934 133.325C34.541 134.223 31.2785 135.27 28.1057 136.468C29.1833 141.137 31.069 145.357 33.7628 149.129Z" fill="white"/>
<path d="M99.6824 132.791L92.6891 108.808L84.8628 132.791H99.6824ZM79.2945 143.467L95.9995 92.651H98.959L117.374 153.07H122.942V154.516H98.5205V153.179H105.623L100.406 134.677H84.249L81.3771 143.84C81.1141 144.673 80.9094 145.455 80.7633 146.186C80.6318 146.902 80.566 147.611 80.566 148.312C80.566 148.4 80.566 148.51 80.566 148.641C80.5806 148.758 80.5952 148.882 80.6098 149.014C80.6245 149.145 80.6318 149.277 80.6318 149.408C80.6464 149.525 80.6537 149.613 80.6537 149.672C80.7852 150.753 81.2529 151.608 82.0567 152.236C82.8606 152.865 83.8251 153.179 84.9505 153.179H86.8358V154.516H69.5828V153.267C69.6413 153.267 69.729 153.274 69.8459 153.289C69.9628 153.289 70.0797 153.296 70.1966 153.311L70.5035 153.355C70.6205 153.369 70.7155 153.362 70.7885 153.333C70.8616 153.289 70.9493 153.267 71.0516 153.267C72.9662 152.799 74.4423 152.017 75.48 150.921C76.0207 150.366 76.4811 149.781 76.8611 149.167C77.2557 148.553 77.5772 147.918 77.8257 147.26C78.0887 146.602 78.3445 145.959 78.593 145.331C78.856 144.702 79.0899 144.081 79.2945 143.467Z" fill="white"/>
<path d="M168.003 95.8736V153.07H174.821V154.516H150.048V153.07H156.866V123.54H136.763V153.07H143.493V154.516H118.809V153.07H125.539V95.8736H118.809V93.9883H143.493V95.8736H136.763V121.742H156.866V95.8736H150.048V93.9883H174.821V95.8736H168.003Z" fill="white"/>
<path d="M198.222 132.791L191.228 108.808L183.402 132.791H198.222ZM177.834 143.467L194.539 92.651H197.498L215.913 153.07H221.481V154.516H197.06V153.179H204.163L198.945 134.677H182.788L179.916 143.84C179.653 144.673 179.449 145.455 179.302 146.186C179.171 146.902 179.105 147.611 179.105 148.312C179.105 148.4 179.105 148.51 179.105 148.641C179.12 148.758 179.134 148.882 179.149 149.014C179.164 149.145 179.171 149.277 179.171 149.408C179.186 149.525 179.193 149.613 179.193 149.672C179.324 150.753 179.792 151.608 180.596 152.236C181.4 152.865 182.364 153.179 183.49 153.179H185.375V154.516H168.122V153.267C168.18 153.267 168.268 153.274 168.385 153.289C168.502 153.289 168.619 153.296 168.736 153.311L169.043 153.355C169.16 153.369 169.255 153.362 169.328 153.333C169.401 153.289 169.488 153.267 169.591 153.267C171.505 152.799 172.981 152.017 174.019 150.921C174.56 150.366 175.02 149.781 175.4 149.167C175.795 148.553 176.116 147.918 176.365 147.26C176.628 146.602 176.884 145.959 177.132 145.331C177.395 144.702 177.629 144.081 177.834 143.467Z" fill="white"/>
<path d="M242.032 94.5364H241.769C239.826 94.5364 238.189 94.8798 236.859 95.5667C235.543 96.239 234.484 97.1671 233.68 98.3509C232.876 99.5347 232.197 100.989 231.641 102.713C231.086 104.423 230.691 106.484 230.457 108.896C230.136 112.169 229.917 115.107 229.8 117.708C229.697 120.31 229.646 122.612 229.646 124.614C229.646 128.092 229.77 131.249 230.019 134.085C230.282 136.905 230.633 139.492 231.071 141.845C231.378 143.526 231.817 145.06 232.387 146.449C232.971 147.823 233.731 149.058 234.666 150.154C236.479 152.317 238.722 153.53 241.397 153.793C244.817 153.734 248.083 152.419 251.196 149.847C255.99 145.915 258.92 140.289 259.987 132.967H261.609V154.626H259.264C258.796 153.676 258.394 152.916 258.058 152.346C257.722 151.776 257.451 151.301 257.247 150.921C256.823 150.147 256.267 149.759 255.581 149.759C255.405 149.759 254.521 150.315 252.928 151.425C252.095 151.995 251.255 152.521 250.407 153.004C249.574 153.486 248.653 153.917 247.645 154.297C247.162 154.473 246.673 154.589 246.176 154.648C245.679 154.721 245.175 154.758 244.663 154.758C244.166 154.772 243.655 154.765 243.129 154.736C242.617 154.721 242.098 154.714 241.572 154.714H240.695C239.833 154.714 238.985 154.692 238.152 154.648C237.334 154.619 236.523 154.538 235.719 154.407C234.915 154.275 234.126 154.093 233.351 153.859C232.591 153.61 231.838 153.281 231.093 152.872C229.588 152.039 228.214 151.031 226.972 149.847C225.729 148.663 224.538 147.275 223.398 145.682C222.288 144.132 221.316 142.532 220.483 140.881C219.664 139.229 218.963 137.431 218.378 135.488C217.793 133.558 217.34 131.651 217.019 129.766C216.712 127.881 216.58 125.922 216.624 123.891C216.683 120.895 217.012 118.103 217.611 115.516C218.225 112.915 219.058 110.408 220.11 107.997C221.177 105.541 222.412 103.415 223.815 101.617C225.218 99.8197 226.84 98.2486 228.682 96.904C230.523 95.5594 232.408 94.5583 234.338 93.9006C236.281 93.2429 238.364 92.9141 240.586 92.9141C240.732 92.9141 240.9 92.9141 241.09 92.9141C241.294 92.8995 241.521 92.8849 241.769 92.8702C242.018 92.8556 242.23 92.8483 242.405 92.8483C242.595 92.8337 242.741 92.8264 242.844 92.8264C247.228 92.8264 251.328 94.2952 255.142 97.2328C255.434 97.5251 255.676 97.6713 255.866 97.6713C256.845 97.6713 258.131 96.1732 259.724 93.1772H261.258V115.012H259.899C259.052 111.124 258.153 107.873 257.203 105.256C256.735 103.927 256.158 102.713 255.471 101.617C254.784 100.507 253.958 99.4909 252.994 98.5701C252.336 97.9563 251.591 97.4301 250.758 96.9917C249.925 96.5386 248.996 96.1002 247.973 95.6763C247.009 95.2817 246.037 94.9967 245.058 94.8214C244.093 94.6314 243.085 94.5364 242.032 94.5364Z" fill="white"/>
<path d="M290.555 95.5229H289.196V152.806H296.123V154.253H271.153V152.719H278.059V95.5229H276.546C274.208 95.5229 272.155 96.2902 270.386 97.8247C268.632 99.3155 267.127 101.208 265.87 103.503C264.613 105.768 263.232 108.618 261.727 112.052H259.841L260.828 93.7252H306.361L307.26 112.052H305.375C304.541 110.109 303.774 108.421 303.073 106.988C302.371 105.556 301.743 104.314 301.187 103.262C300.062 101.142 298.615 99.3228 296.847 97.8028C295.064 96.2829 292.966 95.5229 290.555 95.5229Z" fill="white"/>
<path d="M327.438 132.791L320.445 108.808L312.619 132.791H327.438ZM307.05 143.467L323.755 92.651H326.715L345.13 153.07H350.698V154.516H326.276V153.179H333.379L328.162 134.677H312.005L309.133 143.84C308.87 144.673 308.665 145.455 308.519 146.186C308.388 146.902 308.322 147.611 308.322 148.312C308.322 148.4 308.322 148.51 308.322 148.641C308.336 148.758 308.351 148.882 308.366 149.014C308.38 149.145 308.388 149.277 308.388 149.408C308.402 149.525 308.409 149.613 308.409 149.672C308.541 150.753 309.009 151.608 309.812 152.236C310.616 152.865 311.581 153.179 312.706 153.179H314.592V154.516H297.339V153.267C297.397 153.267 297.485 153.274 297.602 153.289C297.719 153.289 297.836 153.296 297.952 153.311L298.259 153.355C298.376 153.369 298.471 153.362 298.544 153.333C298.617 153.289 298.705 153.267 298.807 153.267C300.722 152.799 302.198 152.017 303.236 150.921C303.777 150.366 304.237 149.781 304.617 149.167C305.011 148.553 305.333 147.918 305.581 147.26C305.845 146.602 306.1 145.959 306.349 145.331C306.612 144.702 306.846 144.081 307.05 143.467Z" fill="white"/>
<path d="M371.249 94.5364H370.986C369.042 94.5364 367.405 94.8798 366.075 95.5667C364.76 96.239 363.7 97.1671 362.897 98.3509C362.093 99.5347 361.413 100.989 360.858 102.713C360.302 104.423 359.908 106.484 359.674 108.896C359.352 112.169 359.133 115.107 359.016 117.708C358.914 120.31 358.863 122.612 358.863 124.614C358.863 128.092 358.987 131.249 359.236 134.085C359.499 136.905 359.849 139.492 360.288 141.845C360.595 143.526 361.033 145.06 361.603 146.449C362.188 147.823 362.948 149.058 363.883 150.154C365.695 152.317 367.939 153.53 370.613 153.793C374.033 153.734 377.3 152.419 380.413 149.847C385.206 145.915 388.137 140.289 389.204 132.967H390.826V154.626H388.48C388.012 153.676 387.611 152.916 387.274 152.346C386.938 151.776 386.668 151.301 386.463 150.921C386.039 150.147 385.484 149.759 384.797 149.759C384.622 149.759 383.738 150.315 382.145 151.425C381.312 151.995 380.471 152.521 379.623 153.004C378.79 153.486 377.87 153.917 376.861 154.297C376.379 154.473 375.889 154.589 375.392 154.648C374.896 154.721 374.391 154.758 373.88 154.758C373.383 154.772 372.871 154.765 372.345 154.736C371.834 154.721 371.315 154.714 370.789 154.714H369.912C369.05 154.714 368.202 154.692 367.369 154.648C366.55 154.619 365.739 154.538 364.935 154.407C364.132 154.275 363.342 154.093 362.568 153.859C361.808 153.61 361.055 153.281 360.31 152.872C358.804 152.039 357.431 151.031 356.188 149.847C354.946 148.663 353.755 147.275 352.615 145.682C351.504 144.132 350.532 142.532 349.699 140.881C348.881 139.229 348.179 137.431 347.595 135.488C347.01 133.558 346.557 131.651 346.235 129.766C345.929 127.881 345.797 125.922 345.841 123.891C345.899 120.895 346.228 118.103 346.827 115.516C347.441 112.915 348.274 110.408 349.327 107.997C350.393 105.541 351.628 103.415 353.031 101.617C354.434 99.8197 356.057 98.2486 357.898 96.904C359.74 95.5594 361.625 94.5583 363.554 93.9006C365.498 93.2429 367.581 92.9141 369.802 92.9141C369.948 92.9141 370.116 92.9141 370.306 92.9141C370.511 92.8995 370.738 92.8849 370.986 92.8702C371.234 92.8556 371.446 92.8483 371.622 92.8483C371.812 92.8337 371.958 92.8264 372.06 92.8264C376.445 92.8264 380.544 94.2952 384.359 97.2328C384.651 97.5251 384.892 97.6713 385.082 97.6713C386.061 97.6713 387.348 96.1732 388.941 93.1772H390.475V115.012H389.116C388.268 111.124 387.369 107.873 386.419 105.256C385.952 103.927 385.374 102.713 384.688 101.617C384.001 100.507 383.175 99.4909 382.21 98.5701C381.553 97.9563 380.807 97.4301 379.974 96.9917C379.141 96.5386 378.213 96.1002 377.19 95.6763C376.225 95.2817 375.254 94.9967 374.274 94.8214C373.31 94.6314 372.301 94.5364 371.249 94.5364Z" fill="white"/>
<path d="M446.695 154.516H421.923V152.894H428.74V100.192L428.302 103.327L408.638 151.294V152.894H415.368V154.516H390.683V152.894H397.413V95.7859H390.683V93.9006H415.368V95.7859H408.638V148.4L409.449 144.914L428.74 97.2328V95.7859H421.923V93.9006H446.695V95.7859H439.877V152.894H446.695V154.516Z" fill="white"/>
<path d="M472.529 93.9006H497.587L497.762 95.6982H490.922V152.806H497.762V154.429H472.968V152.806H479.808V123.54H475.138C473.545 123.54 472.157 123.693 470.973 124C469.804 124.293 468.824 124.651 468.035 125.074C466.471 125.937 465.383 127.354 464.769 129.327C464.433 130.38 464.17 131.629 463.98 133.076C463.79 134.508 463.643 136.211 463.541 138.184C463.468 139.689 463.3 141.107 463.037 142.437C462.774 143.752 462.387 145.031 461.875 146.274C460.823 148.831 459.515 150.79 457.951 152.149C456.402 153.508 454.524 154.297 452.317 154.516C451.469 154.589 450.578 154.611 449.642 154.582C448.707 154.553 447.713 154.538 446.661 154.538C445.74 154.538 444.936 154.531 444.249 154.516C443.577 154.516 443.007 154.516 442.539 154.516L443.438 153.07C443.76 153.201 444.059 153.267 444.337 153.267C444.469 153.267 444.68 153.238 444.973 153.179C445.265 153.106 445.528 153.07 445.762 153.07C446.639 152.894 447.392 152.543 448.02 152.017C448.648 151.476 449.167 150.768 449.576 149.891C450 148.999 450.322 147.947 450.541 146.734C450.76 145.506 450.906 144.118 450.98 142.569C451.067 140.508 451.206 138.747 451.396 137.285C451.586 135.809 451.827 134.545 452.12 133.493C452.426 132.397 452.704 131.49 452.953 130.774C453.216 130.044 453.486 129.488 453.764 129.108C455.064 127.34 456.862 125.922 459.157 124.855C461.466 123.788 464.279 123.196 467.597 123.079L469.921 122.992L462.379 121.194C458.974 120.054 456.299 118.359 454.356 116.108C452.397 113.843 451.418 111.197 451.418 108.172C451.418 108.099 451.418 107.989 451.418 107.843C451.433 107.697 451.447 107.522 451.462 107.317C451.476 107.113 451.484 106.945 451.484 106.813C451.498 106.667 451.506 106.557 451.506 106.484C452.149 102.173 454.129 99.0012 457.447 96.9698C460.808 94.9237 465.836 93.9006 472.529 93.9006ZM473.253 121.655H479.808V95.6982H476.475C474.707 95.6982 473.136 95.7786 471.762 95.9394C470.403 96.0855 469.212 96.3267 468.189 96.6628C467.209 96.9844 466.369 97.4301 465.668 98.0001C464.981 98.5555 464.425 99.257 464.001 100.105C463.578 100.938 463.285 101.961 463.125 103.174C462.964 104.387 462.832 105.79 462.73 107.383L462.642 108.633C462.628 108.881 462.606 109.137 462.577 109.4C462.562 109.648 462.547 109.897 462.533 110.145C462.518 110.379 462.503 110.598 462.489 110.803C462.474 110.993 462.467 111.139 462.467 111.241C462.467 115.027 463.3 117.708 464.966 119.287C466.647 120.865 469.409 121.655 473.253 121.655Z" fill="white"/>
</svg>
